<svg width="28" height="33" viewBox="0 0 28 33" fill="none" xmlns="http://www.w3.org/2000/svg">
<path d="M27.42 7.09003L14.42 1.09003C14.2884 1.02911 14.1451 0.997559 14 0.997559C13.855 0.997559 13.7116 1.02911 13.58 1.09003L0.580003 7.09003C0.406423 7.17037 0.259522 7.29879 0.15672 7.46008C0.0539189 7.62138 -0.000470225 7.80877 3.06274e-06 8.00003V25C-0.000470225 25.1913 0.0539189 25.3787 0.15672 25.54C0.259522 25.7013 0.406423 25.8297 0.580003 25.91L13.58 31.91C13.7116 31.971 13.855 32.0025 14 32.0025C14.1451 32.0025 14.2884 31.971 14.42 31.91L27.42 25.91C27.5936 25.8297 27.7405 25.7013 27.8433 25.54C27.9461 25.3787 28.0005 25.1913 28 25V8.00003C28.0005 7.80877 27.9461 7.62138 27.8433 7.46008C27.7405 7.29879 27.5936 7.17037 27.42 7.09003V7.09003ZM14 12.9L3.39 8.00003L14 3.10003L24.61 8.00003L14 12.9ZM26 24.36L15 29.44V14.64L26 9.56003V24.36Z" fill="#CF2F2F"/>
</svg>

