<svg width="20" height="20" viewBox="0 0 20 20" fill="none" xmlns="http://www.w3.org/2000/svg">
<g filter="url(#filter0_d)">
<path d="M10 1.25C10.6861 1.2499 11.3475 1.5063 11.8543 1.96886C12.3611 2.43142 12.6766 3.06671 12.739 3.75H17C17.19 3.75006 17.3729 3.82224 17.5118 3.95197C17.6506 4.0817 17.7351 4.2593 17.748 4.44888C17.761 4.63846 17.7015 4.82589 17.5816 4.9733C17.4617 5.12071 17.2902 5.2171 17.102 5.243L17 5.25H16.417L15.15 16.23C15.0936 16.7174 14.86 17.167 14.4936 17.4934C14.1272 17.8198 13.6537 18.0001 13.163 18H6.837C6.34635 18.0001 5.87279 17.8198 5.50642 17.4934C5.14005 17.167 4.90642 16.7174 4.85 16.23L3.582 5.25H3C2.81876 5.24999 2.64366 5.18436 2.50707 5.06523C2.37048 4.94611 2.28165 4.78155 2.257 4.602L2.25 4.5C2.25001 4.31876 2.31564 4.14366 2.43477 4.00707C2.55389 3.87048 2.71845 3.78165 2.898 3.757L3 3.75H7.261C7.32338 3.06671 7.63893 2.43142 8.14571 1.96886C8.65248 1.5063 9.31387 1.2499 10 1.25V1.25ZM8.5 7.5C8.255 7.5 8.05 7.655 8.008 7.859L8 7.938V14.063L8.008 14.141C8.05 14.345 8.255 14.5 8.5 14.5C8.745 14.5 8.95 14.345 8.992 14.141L9 14.062V7.939L8.992 7.859C8.95 7.656 8.745 7.5 8.5 7.5ZM11.5 7.5C11.255 7.5 11.05 7.655 11.008 7.859L11 7.938V14.063L11.008 14.141C11.05 14.345 11.255 14.5 11.5 14.5C11.745 14.5 11.95 14.345 11.992 14.141L12 14.062V7.939L11.992 7.859C11.95 7.656 11.745 7.501 11.5 7.501V7.5ZM10 2.75C9.395 2.75 8.89 3.18 8.775 3.75H11.225C11.109 3.18 10.605 2.75 10 2.75V2.75Z" fill="#353535"/>
</g>
<defs>
<filter id="filter0_d" x="-1.75" y="-2.75" width="23.4998" height="24.75" filterUnits="userSpaceOnUse" color-interpolation-filters="sRGB">
<feFlood flood-opacity="0" result="BackgroundImageFix"/>
<feColorMatrix in="SourceAlpha" type="matrix" values="0 0 0 0 0 0 0 0 0 0 0 0 0 0 0 0 0 0 127 0"/>
<feOffset/>
<feGaussianBlur stdDeviation="2"/>
<feColorMatrix type="matrix" values="0 0 0 0 0 0 0 0 0 0 0 0 0 0 0 0 0 0 0.25 0"/>
<feBlend mode="normal" in2="BackgroundImageFix" result="effect1_dropShadow"/>
<feBlend mode="normal" in="SourceGraphic" in2="effect1_dropShadow" result="shape"/>
</filter>
</defs>
</svg>
