<svg width="19" height="20" viewBox="0 0 19 20" fill="none" xmlns="http://www.w3.org/2000/svg">
<path d="M0.71469 19.886C0.930384 19.9701 1.17256 20.0086 1.41522 19.9974C1.65788 19.9861 1.89187 19.9255 2.09207 19.822L19.426 10.822C19.6031 10.73 19.7478 10.6071 19.8478 10.464C19.9478 10.3208 20 10.1616 20 10C20 9.83839 19.9478 9.6792 19.8478 9.53604C19.7478 9.39288 19.6031 9.27003 19.426 9.178L2.09207 0.177998C1.89203 0.0741911 1.65793 0.0134034 1.41513 0.00221746C1.17233 -0.00896853 0.930075 0.0298735 0.714596 0.114538C0.499118 0.199202 0.318628 0.326462 0.192669 0.482538C0.06671 0.638615 8.21138e-05 0.81756 1.81114e-08 0.999999V19C-4.00911e-05 19.1825 0.0665396 19.3616 0.192523 19.5178C0.318506 19.674 0.499086 19.8013 0.71469 19.886Z" fill="#D7AE5E"/>
</svg>
