<svg width="20" height="20" viewBox="0 0 20 20" fill="none" xmlns="http://www.w3.org/2000/svg">
<path d="M0.574061 10.8218L17.9097 19.8217C18.1098 19.9255 18.3439 19.9863 18.5867 19.9974C18.8296 20.0086 19.0718 19.9698 19.2873 19.8851C19.5028 19.8005 19.6834 19.6732 19.8093 19.5171C19.9353 19.3611 20.0019 19.1821 20.002 18.9997V0.999975C20.0022 0.817455 19.9357 0.638383 19.8098 0.482165C19.684 0.325948 19.5035 0.198544 19.2879 0.113761C19.0724 0.0289779 18.83 -0.00995044 18.5871 0.00119505C18.3441 0.0123405 18.1099 0.0731347 17.9097 0.176989L0.574061 9.17684C0.397448 9.26927 0.253213 9.39232 0.153618 9.53551C0.0540231 9.67871 0.00201416 9.83783 0.00201416 9.99933C0.00201416 10.1608 0.0540231 10.3199 0.153618 10.4631C0.253213 10.6063 0.397448 10.7294 0.574061 10.8218V10.8218Z" fill="#D7AE5E"/>
</svg>
