<svg width="35" height="35" viewBox="0 0 35 35" fill="none" xmlns="http://www.w3.org/2000/svg">
<g clip-path="url(#clip0)">
<g filter="url(#filter0_d)">
<path d="M17.5 35C27.165 35 35 27.165 35 17.5C35 7.83502 27.165 0 17.5 0C7.83502 0 0 7.83502 0 17.5C0 27.165 7.83502 35 17.5 35Z" fill="#FF4500"/>
</g>
<path d="M29.1416 17.6668C29.1416 16.2483 27.9944 15.1216 26.5963 15.1216C25.9359 15.1207 25.3006 15.3748 24.8231 15.831C23.0706 14.5791 20.6712 13.7656 18.0008 13.6613L19.1689 8.19511L22.966 9.00858C23.008 9.96835 23.8005 10.7404 24.7814 10.7404C25.7827 10.7404 26.5963 9.92692 26.5963 8.92505C26.5963 7.92372 25.7828 7.11011 24.7814 7.11011C24.0721 7.11011 23.4459 7.52737 23.1539 8.13249L18.9189 7.23534C18.7936 7.21429 18.6684 7.23534 18.5849 7.29796C18.4805 7.36058 18.4181 7.46476 18.3974 7.58999L17.1035 13.6819C14.3914 13.7656 11.9503 14.5791 10.1771 15.8519C9.69946 15.3957 9.06414 15.1416 8.40369 15.1426C6.98496 15.1426 5.8584 16.2898 5.8584 17.6879C5.8584 18.7309 6.48416 19.607 7.36066 20.0038C7.3181 20.2589 7.29715 20.5171 7.29805 20.7757C7.29805 24.6976 11.8672 27.89 17.5001 27.89C23.1332 27.89 27.7024 24.7187 27.7024 20.7757C27.7022 20.5171 27.6813 20.259 27.6397 20.0038C28.5158 19.607 29.1416 18.7099 29.1416 17.6668V17.6668ZM11.6583 19.4818C11.6583 18.4805 12.4718 17.6668 13.4736 17.6668C14.475 17.6668 15.2886 18.4803 15.2886 19.4818C15.2886 20.4833 14.4751 21.2971 13.4736 21.2971C12.4719 21.3176 11.6583 20.4833 11.6583 19.4818ZM21.8188 24.3013C20.567 25.5532 18.1885 25.6367 17.5001 25.6367C16.7908 25.6367 14.4125 25.5321 13.1812 24.3013C12.9938 24.1135 12.9938 23.8214 13.1812 23.6337C13.369 23.4462 13.6611 23.4462 13.8489 23.6337C14.6419 24.4266 16.311 24.6976 17.5001 24.6976C18.6895 24.6976 20.3792 24.4265 21.1511 23.6337C21.3389 23.4462 21.631 23.4462 21.8188 23.6337C21.9856 23.8214 21.9856 24.1135 21.8188 24.3013ZM21.4848 21.3178C20.4833 21.3178 19.6699 20.5043 19.6699 19.5028C19.6699 18.5014 20.4833 17.6879 21.4848 17.6879C22.4865 17.6879 23.3 18.5014 23.3 19.5028C23.3 20.4831 22.4865 21.3178 21.4848 21.3178Z" fill="white"/>
</g>
<defs>
<filter id="filter0_d" x="-6" y="-6" width="55" height="55" filterUnits="userSpaceOnUse" color-interpolation-filters="sRGB">
<feFlood flood-opacity="0" result="BackgroundImageFix"/>
<feColorMatrix in="SourceAlpha" type="matrix" values="0 0 0 0 0 0 0 0 0 0 0 0 0 0 0 0 0 0 127 0"/>
<feOffset dx="4" dy="4"/>
<feGaussianBlur stdDeviation="5"/>
<feColorMatrix type="matrix" values="0 0 0 0 0 0 0 0 0 0 0 0 0 0 0 0 0 0 0.25 0"/>
<feBlend mode="normal" in2="BackgroundImageFix" result="effect1_dropShadow"/>
<feBlend mode="normal" in="SourceGraphic" in2="effect1_dropShadow" result="shape"/>
</filter>
<clipPath id="clip0">
<rect width="35" height="35" rx="10" fill="white"/>
</clipPath>
</defs>
</svg>
