<svg width="36" height="36" viewBox="0 0 36 36" fill="none" xmlns="http://www.w3.org/2000/svg">
<g filter="url(#filter0_d)">
<g clip-path="url(#clip0)">
<g filter="url(#filter1_d)">
<path d="M18 25C16.1435 25 14.363 24.2625 13.0503 22.9497C11.7375 21.637 11 19.8565 11 18C11 16.1435 11.7375 14.363 13.0503 13.0503C14.363 11.7375 16.1435 11 18 11C19.8565 11 21.637 11.7375 22.9497 13.0503C24.2625 14.363 25 16.1435 25 18C25 19.8565 24.2625 21.637 22.9497 22.9497C21.637 24.2625 19.8565 25 18 25ZM18 26C20.1217 26 22.1566 25.1571 23.6569 23.6569C25.1571 22.1566 26 20.1217 26 18C26 15.8783 25.1571 13.8434 23.6569 12.3431C22.1566 10.8429 20.1217 10 18 10C15.8783 10 13.8434 10.8429 12.3431 12.3431C10.8429 13.8434 10 15.8783 10 18C10 20.1217 10.8429 22.1566 12.3431 23.6569C13.8434 25.1571 15.8783 26 18 26V26Z" fill="black"/>
<path d="M21 18C21 18.7956 20.6839 19.5587 20.1213 20.1213C19.5587 20.6839 18.7956 21 18 21C17.2044 21 16.4413 20.6839 15.8787 20.1213C15.3161 19.5587 15 18.7956 15 18C15 17.2044 15.3161 16.4413 15.8787 15.8787C16.4413 15.3161 17.2044 15 18 15C18.7956 15 19.5587 15.3161 20.1213 15.8787C20.6839 16.4413 21 17.2044 21 18V18Z" fill="black"/>
</g>
</g>
</g>
<defs>
<filter id="filter0_d" x="0" y="0" width="36" height="36" filterUnits="userSpaceOnUse" color-interpolation-filters="sRGB">
<feFlood flood-opacity="0" result="BackgroundImageFix"/>
<feColorMatrix in="SourceAlpha" type="matrix" values="0 0 0 0 0 0 0 0 0 0 0 0 0 0 0 0 0 0 127 0"/>
<feOffset/>
<feGaussianBlur stdDeviation="5"/>
<feColorMatrix type="matrix" values="0 0 0 0 0 0 0 0 0 0 0 0 0 0 0 0 0 0 0.25 0"/>
<feBlend mode="normal" in2="BackgroundImageFix" result="effect1_dropShadow"/>
<feBlend mode="normal" in="SourceGraphic" in2="effect1_dropShadow" result="shape"/>
</filter>
<filter id="filter1_d" x="0" y="0" width="36" height="36" filterUnits="userSpaceOnUse" color-interpolation-filters="sRGB">
<feFlood flood-opacity="0" result="BackgroundImageFix"/>
<feColorMatrix in="SourceAlpha" type="matrix" values="0 0 0 0 0 0 0 0 0 0 0 0 0 0 0 0 0 0 127 0"/>
<feOffset/>
<feGaussianBlur stdDeviation="5"/>
<feColorMatrix type="matrix" values="0 0 0 0 0 0 0 0 0 0 0 0 0 0 0 0 0 0 0.25 0"/>
<feBlend mode="normal" in2="BackgroundImageFix" result="effect1_dropShadow"/>
<feBlend mode="normal" in="SourceGraphic" in2="effect1_dropShadow" result="shape"/>
</filter>
<clipPath id="clip0">
<rect x="10" y="10" width="16" height="16" rx="8" fill="white"/>
</clipPath>
</defs>
</svg>
