<svg width="45" height="45" viewBox="0 0 45 45" fill="none" xmlns="http://www.w3.org/2000/svg">
<g filter="url(#filter0_d)">
<path d="M35 4.37335C33.7121 4.97567 32.3282 5.38274 30.8757 5.56588C32.3585 4.62858 33.4969 3.14434 34.033 1.37589C32.6235 2.25808 31.0814 2.87963 29.4733 3.2137C28.1634 1.74187 26.2973 0.822021 24.2319 0.822021C20.2662 0.822021 17.051 4.213 17.051 8.39535C17.051 8.98901 17.1146 9.56696 17.237 10.1214C11.2692 9.80547 5.97816 6.79041 2.43646 2.20835C1.8185 3.3269 1.46439 4.62801 1.46439 6.01578C1.46439 8.64337 2.73219 10.9614 4.65883 12.3196C3.51852 12.2819 2.40331 11.9571 1.40629 11.3722C1.40588 11.4039 1.40588 11.4356 1.40588 11.4675C1.40588 15.1369 3.88104 18.198 7.16584 18.8937C6.10844 19.1971 4.9993 19.2414 3.92314 19.0235C4.83684 22.0324 7.48877 24.2219 10.6308 24.2832C8.17332 26.3144 5.07705 27.5252 1.71295 27.5252C1.13326 27.5252 0.561777 27.4893 0 27.4194C3.17775 29.5682 6.95215 30.822 11.0072 30.822C24.2152 30.822 31.4377 19.2816 31.4377 9.27366C31.4377 8.94518 31.4308 8.61857 31.4169 8.29383C32.8227 7.22198 34.036 5.89438 35 4.37335" fill="#55ACEE"/>
</g>
<defs>
<filter id="filter0_d" x="-10" y="-5.17798" width="55" height="50" filterUnits="userSpaceOnUse" color-interpolation-filters="sRGB">
<feFlood flood-opacity="0" result="BackgroundImageFix"/>
<feColorMatrix in="SourceAlpha" type="matrix" values="0 0 0 0 0 0 0 0 0 0 0 0 0 0 0 0 0 0 127 0"/>
<feOffset dy="4"/>
<feGaussianBlur stdDeviation="5"/>
<feColorMatrix type="matrix" values="0 0 0 0 0 0 0 0 0 0 0 0 0 0 0 0 0 0 0.25 0"/>
<feBlend mode="normal" in2="BackgroundImageFix" result="effect1_dropShadow"/>
<feBlend mode="normal" in="SourceGraphic" in2="effect1_dropShadow" result="shape"/>
</filter>
</defs>
</svg>
