<svg width="2001" height="262" viewBox="0 0 2001 262" fill="none" xmlns="http://www.w3.org/2000/svg">
<path fill-rule="evenodd" clip-rule="evenodd" d="M0.5 189.971L83.8333 147.971C167.167 105.971 333.833 21.9709 500.5 3.97089C667.167 -14.0291 833.833 33.9709 1000.5 51.9709C1167.17 69.9709 1333.83 57.9709 1500.5 57.9709C1667.17 57.9709 1833.83 69.9709 1917.17 75.9709L2000.5 81.9709V261.971H1917.17C1833.83 261.971 1667.17 261.971 1500.5 261.971C1333.83 261.971 1167.17 261.971 1000.5 261.971C833.833 261.971 667.167 261.971 500.5 261.971C333.833 261.971 167.167 261.971 83.8333 261.971H0.5V189.971Z" fill="#FFC107" fill-opacity="0.51"/>
</svg>

