<svg width="1801" height="220" viewBox="0 0 1801 220" fill="none" xmlns="http://www.w3.org/2000/svg">
<path fill-rule="evenodd" clip-rule="evenodd" d="M0.5 13.5L183.415 0.499985C257.443 9.38887 319.933 15.5556 467.99 24.4445C616.047 33.3333 764.103 33.3333 912.16 51.1111C1060.22 68.8889 1208.27 104.444 1356.33 113.333C1504.39 122.222 1652.44 104.444 1726.47 95.5556L1800.5 86.6667V220H1726.47C1652.44 220 1504.39 220 1356.33 220C1208.27 220 1060.22 220 912.16 220C764.103 220 616.047 220 467.99 220C319.933 220 171.877 220 97.8482 220L0.5 209V13.5Z" fill="#EEA73C" fill-opacity="0.84"/>
</svg>

