<svg width="1201" height="297" viewBox="0 0 1201 297" fill="none" xmlns="http://www.w3.org/2000/svg">
<path fill-rule="evenodd" clip-rule="evenodd" d="M0.135986 224.971L50.136 182.971C100.136 140.971 200.136 56.9709 300.136 38.9709C400.136 20.9709 500.136 68.9709 600.136 86.9709C700.136 104.971 800.136 92.9709 900.136 92.9709C1000.14 92.9709 1100.14 104.971 1150.14 110.971L1200.14 116.971V296.971H1150.14C1100.14 296.971 1000.14 296.971 900.136 296.971C800.136 296.971 700.136 296.971 600.136 296.971C500.136 296.971 400.136 296.971 300.136 296.971C200.136 296.971 100.136 296.971 50.136 296.971H0.135986V224.971Z" fill="#FFC107" fill-opacity="0.51"/>
<path fill-rule="evenodd" clip-rule="evenodd" d="M0 0L50 11C100 22 200 44 300 55C400 66 500 66 600 88C700 110 800 154 900 165C1000 176 1100 154 1150 143L1200 132V297H1150C1100 297 1000 297 900 297C800 297 700 297 600 297C500 297 400 297 300 297C200 297 100 297 50 297H0V0Z" fill="#EEA73C" fill-opacity="0.84"/>
<path fill-rule="evenodd" clip-rule="evenodd" d="M0 253.833H50C100 253.833 200 253.833 300 210.667C400 167.5 500 81.1667 600 66.7778C700 52.3889 800 109.944 900 117.139C1000 124.333 1100 81.1667 1150 59.5833L1200 38V297H1150C1100 297 1000 297 900 297C800 297 700 297 600 297C500 297 400 297 300 297C200 297 100 297 50 297H0V253.833Z" fill="#C28F2C" fill-opacity="0.69"/>
</svg>
